<svg xmlns="http://www.w3.org/2000/svg" fill="none" viewBox="0 0 802 234">
  <path fill="#000" stroke="#000" stroke-linecap="round" stroke-linejoin="round" stroke-miterlimit="10" stroke-width="3.34" d="M761.848 74.246c13.375 23.098 21.133 45.758 23.277 62.199.09 4.27-.047 5.367-1.969 6.754-3.75 2.816-8.121 5.187-10.43 6.062l-8.117 46.043c2.309-.875 6.68-3.246 10.426-6.062 11.898-9.484 19.562-30.129 22.828-50.695 7.141-42.066-8.801-85.945-27.895-110.344l-8.12 46.043Z"/>
  <path fill="#000" stroke="#000" stroke-linecap="round" stroke-linejoin="round" stroke-miterlimit="10" stroke-width="3.34" d="M772.727 149.262c-37.012 14.008-83.773 17.559-120.625 3.137l-8.117 46.047c36.852 14.418 83.613 10.867 120.625-3.141l8.117-46.043Z"/>
  <path fill="#000" stroke="#000" stroke-linecap="round" stroke-linejoin="round" stroke-miterlimit="10" stroke-width="3.34" d="M652.102 152.398c-14.965-5.855-33.723-14.723-44.965-27.359-11.336-12.441-17.773-20.309-18.828-30.422-.02-18.418 37.922-45.727 46.426-45.238 7.82.605 14.211 16.047 18.648 25.465 3.785 8.105 7.465 22.543 7.152 26.285-1.254 5.215-11.645 13.434-21.898 21.035-17.539 12.355-36.859 23.129-48.852 28.68l-8.117 46.043c11.992-5.547 31.309-16.324 48.848-28.68 21.52-14.777 39.273-42.883 44.023-65.926 1.984-8.039 2.969-18.879 3.285-29.203-.105-34.633-18.254-74.453-39.219-70.293-24.715 5.418-65.07 57.492-63.477 99.027.891 36.852 8.844 54.672 23.887 69.273 13.398 12.961 30 21.504 44.969 27.359l8.118-46.046Z"/>
  <path fill="#000" stroke="#000" stroke-linecap="round" stroke-linejoin="round" stroke-miterlimit="10" stroke-width="3.34" d="M589.785 150.844c-24.187 11.152-56.988 21.246-80.762 9.238l-8.117 46.043c23.773 12.008 56.574 1.914 80.762-9.238l8.117-46.043Z"/>
  <path fill="#000" stroke="#000" stroke-linecap="round" stroke-linejoin="round" stroke-miterlimit="10" stroke-width="3.34" d="M509.024 160.082c-12.391-6.465-22.359-19.348-22.023-34.363.082-10.598 8.148-28.457 1.855-30.68-3.594-1.648-20.84 5.902-61.227 27.293-75.051 39.75-185.387 62.066-255.418 63.793-82.602 2.047-125.898-24.906-143.125-57.242-31.148-49.355.875-108.625 2.262-115.137l.359-1.68c4.469-20.836-60.336 80.293-11.98 163.699 18.465 31.5 61.766 58.449 144.363 56.402 69.937-1.742 180.367-24.043 255.422-63.793 40.383-21.387 39.141-20.777 47.203-23.555 10.566-4.484 7.164 5.867 10.445 25.617 2.312 15.043 11.352 29.223 23.746 35.687l8.118-46.041Z"/>
</svg>
